<?xml version="1.0" standalone="no"?>
<!DOCTYPE svg PUBLIC "-//W3C//DTD SVG 20010904//EN"
 "http://www.w3.org/TR/2001/REC-SVG-20010904/DTD/svg10.dtd">
<svg version="1.0" xmlns="http://www.w3.org/2000/svg"
 width="512.000000pt" height="512.000000pt" viewBox="0 0 512.000000 512.000000"
 preserveAspectRatio="xMidYMid meet">
<metadata>
Created by potrace 1.11, written by Peter Selinger 2001-2013
</metadata>
<g transform="translate(0.000000,512.000000) scale(0.100000,-0.100000)"
fill="#000000" stroke="none">
<path d="M3455 4893 c-146 -28 -190 -38 -254 -60 -42 -14 -105 -38 -141 -54
-66 -30 -94 -47 -263 -156 -53 -35 -101 -63 -106 -63 -5 0 -11 -3 -13 -7 -7
-16 -232 -155 -335 -207 -37 -19 -84 -37 -103 -39 -32 -5 -38 -2 -70 39 -41
53 -199 207 -238 232 -15 9 -33 22 -40 29 -19 18 -117 74 -187 107 -224 105
-507 94 -725 -27 -223 -124 -391 -288 -468 -457 -27 -58 -46 -111 -44 -117 0
-2 -4 -17 -9 -35 -16 -51 -20 -216 -8 -283 6 -33 13 -71 15 -85 15 -80 88
-251 162 -375 48 -82 191 -271 239 -318 l39 -37 -31 -93 c-17 -51 -41 -142
-53 -202 -20 -106 -25 -137 -37 -235 -2 -25 -7 -65 -10 -90 -16 -127 -29 -473
-29 -775 0 -380 22 -967 36 -980 4 -4 237 -134 331 -185 l79 -42 146 31 c81
17 174 35 207 41 33 6 71 12 85 15 14 2 45 6 70 9 25 3 56 8 69 10 13 3 49 8
80 11 31 4 67 8 81 11 146 25 476 25 665 -1 17 -2 64 -7 105 -10 41 -4 77 -8
80 -10 4 -2 32 -7 64 -10 31 -4 67 -8 79 -11 12 -2 45 -7 72 -10 28 -3 57 -7
65 -10 8 -3 44 -9 80 -14 36 -5 79 -12 95 -15 59 -11 146 -26 183 -31 20 -2
44 -6 52 -9 12 -4 146 -30 310 -61 14 -3 100 -20 192 -39 226 -47 219 -45 253
-51 20 -3 94 16 215 54 l184 58 8 35 c4 19 10 66 13 104 3 39 7 80 9 92 17 84
29 615 28 1233 0 670 -3 733 -43 880 -57 214 -217 416 -385 486 -18 8 -34 18
-34 22 1 4 22 20 48 37 61 38 91 64 182 155 332 331 319 725 -36 1108 -186
201 -422 347 -624 387 -109 22 -270 30 -335 18z"/>
</g>
</svg>
