<?xml version="1.0" standalone="no"?>
<!DOCTYPE svg PUBLIC "-//W3C//DTD SVG 20010904//EN"
 "http://www.w3.org/TR/2001/REC-SVG-20010904/DTD/svg10.dtd">
<svg version="1.0" xmlns="http://www.w3.org/2000/svg"
 width="512.000000pt" height="512.000000pt" viewBox="0 0 512.000000 512.000000"
 preserveAspectRatio="xMidYMid meet">
<metadata>
Created by potrace 1.11, written by Peter Selinger 2001-2013
</metadata>
<g transform="translate(0.000000,512.000000) scale(0.100000,-0.100000)"
fill="#000000" stroke="none">
<path d="M2288 4325 c-2 -2 -30 -6 -63 -9 -33 -4 -67 -9 -75 -11 -8 -2 -31 -7
-50 -10 -299 -51 -702 -211 -955 -381 -277 -185 -431 -355 -561 -615 -64 -129
-126 -269 -118 -269 2 0 0 -8 -5 -18 -5 -9 -16 -51 -25 -92 -15 -74 -20 -106
-32 -205 -3 -27 -8 -61 -10 -75 -9 -52 -12 -418 -4 -485 26 -209 77 -383 144
-485 13 -19 26 -52 30 -74 9 -49 42 -119 80 -171 72 -98 268 -243 454 -335 95
-47 412 -160 450 -160 10 0 22 -3 26 -7 3 -4 12 -8 19 -9 7 -1 50 -11 97 -22
144 -35 200 -45 390 -68 138 -17 595 -10 745 11 22 4 54 8 70 10 17 1 41 6 55
9 14 3 37 8 52 10 71 12 204 41 308 68 381 98 639 210 847 367 83 63 275 252
344 339 107 135 191 329 225 520 2 12 7 34 10 50 10 46 13 403 4 480 -47 390
-159 674 -367 932 -58 71 -192 202 -244 237 -13 9 -26 20 -29 23 -14 18 -188
124 -275 168 -167 84 -309 136 -515 188 -43 11 -200 43 -235 48 -23 4 -50 8
-62 10 -12 3 -54 8 -95 11 -40 4 -86 9 -103 12 -33 6 -522 13 -527 8z m482
-60 c30 -4 62 -7 70 -7 28 0 211 -23 260 -33 14 -3 41 -8 60 -11 118 -21 363
-91 465 -133 447 -183 761 -474 924 -855 36 -86 82 -224 95 -290 25 -123 25
-122 44 -276 9 -79 8 -334 -2 -410 -18 -135 -53 -260 -111 -394 -24 -57 -27
-39 -5 35 26 83 31 107 49 239 9 64 6 372 -4 440 -2 19 -7 55 -10 79 -3 25 -8
47 -10 51 -2 3 -6 24 -9 46 -11 83 -46 205 -92 319 -175 440 -556 776 -1074
948 -89 29 -222 67 -259 73 -14 2 -55 11 -91 18 -190 41 -386 59 -655 59 -173
0 -297 -6 -357 -19 -215 -45 -260 -57 -409 -107 -178 -61 -307 -118 -463 -206
-115 -64 -285 -183 -308 -216 -5 -7 -8 -6 -8 1 0 27 211 196 361 289 104 64
312 169 379 190 3 1 12 5 20 8 74 33 349 115 441 132 13 3 35 7 49 10 63 12
91 16 175 21 50 4 91 7 92 8 6 5 333 -3 383 -9z"/>
</g>
</svg>
